<svg xmlns="http://www.w3.org/2000/svg" xmlns:xlink="http://www.w3.org/1999/xlink" width="128" height="128" viewBox="0 0 128 128">
  <defs>
    <clipPath id="clip-path">
      <rect id="Rectángulo_454829" data-name="Rectángulo 454829" width="128" height="128" fill="#1e535a"/>
    </clipPath>
    <clipPath id="clip-path-2">
      <rect id="Rectángulo_461677" data-name="Rectángulo 461677" width="50.667" height="41.999" fill="#1e535a"/>
    </clipPath>
  </defs>
  <g id="Grupo_1211907" data-name="Grupo 1211907" transform="translate(-0.402 -0.359)">
    <g id="Grupo_1177591" data-name="Grupo 1177591" transform="translate(0.402 0.359)">
      <g id="Grupo_1177589" data-name="Grupo 1177589" transform="translate(0 0)">
        <g id="Grupo_1177587" data-name="Grupo 1177587" clip-path="url(#clip-path)">
          <path id="Trazado_997422" data-name="Trazado 997422" d="M122.774,56.654a58.848,58.848,0,0,0-13.293-30.623,6.768,6.768,0,0,0-9.523-9.118A58.761,58.761,0,0,0,69.535,5.027a6.769,6.769,0,0,0-13.148.267A58.842,58.842,0,0,0,27.2,17.772a6.771,6.771,0,0,0-9.4,9.462A58.794,58.794,0,0,0,5.483,56.6a6.774,6.774,0,0,0-.162,13.266A58.776,58.776,0,0,0,17.252,99.82a6.771,6.771,0,0,0,9.2,9.56,58.838,58.838,0,0,0,29.883,13.07,6.771,6.771,0,0,0,13.266.267,58.788,58.788,0,0,0,30.646-12.107,6.769,6.769,0,0,0,9.476-9.165A58.863,58.863,0,0,0,122.933,69.8a6.771,6.771,0,0,0-.159-13.144m-19.12-27.288a6.733,6.733,0,0,0,3.75-1.135,55.884,55.884,0,0,1,12.333,28.407,6.781,6.781,0,0,0-4.327,3.135L98.1,53.283c.013-.189.027-.382.027-.578a6.772,6.772,0,0,0-2.868-5.533l7.57-17.86a7.335,7.335,0,0,0,.821.054M100,28.288,92.472,46.03a6.7,6.7,0,0,0-7.459,4.307L53.705,43.125a6.588,6.588,0,0,0-.142-1.348L97.992,26.305a6.793,6.793,0,0,0,2,1.983M63,13.553a6.777,6.777,0,0,0,6.651-5.5A55.792,55.792,0,0,1,97.857,19.09a6.739,6.739,0,0,0-.98,3.5,7.114,7.114,0,0,0,.064.9L52.29,39.031A6.8,6.8,0,0,0,51.064,37.8L62.775,13.543c.074,0,.145.01.22.01M56.4,8.324a6.778,6.778,0,0,0,3.409,4.435L48.331,36.538a6.8,6.8,0,0,0-1.4-.145,6.727,6.727,0,0,0-3.861,1.213L29.461,26.238A6.736,6.736,0,0,0,29.231,20,55.836,55.836,0,0,1,56.4,8.324M13.387,61.776l28.15-14.519a6.751,6.751,0,0,0,5.341,2.686l9.648,30.839a6.887,6.887,0,0,0-1.493,1.652L13.3,65.046a6.731,6.731,0,0,0,.25-1.8,6.81,6.81,0,0,0-.166-1.473m6.648-32.521a6.771,6.771,0,0,0,7.564-.645L41.037,39.831a6.758,6.758,0,0,0-.747,4.682l-28.2,14.539A6.774,6.774,0,0,0,8.506,56.7,55.812,55.812,0,0,1,20.036,29.254m2.8,67.623a6.756,6.756,0,0,0-3.365.9A55.762,55.762,0,0,1,8.351,69.832a6.783,6.783,0,0,0,3.517-2.121L54.013,85.27a7.266,7.266,0,0,0-.054.814,6.775,6.775,0,0,0,.405,2.29L28.876,100.587a6.775,6.775,0,0,0-6.037-3.709m33.626,22.556a55.892,55.892,0,0,1-27.883-12.2,6.705,6.705,0,0,0,1.034-3.581l0-.078L56,90.929a6.776,6.776,0,0,0,2.392,1.51l1.581,22.725a6.776,6.776,0,0,0-3.51,4.27m2.807-39.96L49.831,49.287a6.786,6.786,0,0,0,3.219-3.219l31.562,7.266a6.736,6.736,0,0,0,1.078,3.081L64.042,80.173a6.692,6.692,0,0,0-4.77-.7M69.592,119.7a6.774,6.774,0,0,0-6.6-5.25l-.051,0-1.5-21.623a6.764,6.764,0,0,0,4.142-2.01l31.555,13.918c0,.061-.01.115-.01.176a6.743,6.743,0,0,0,1,3.534A55.789,55.789,0,0,1,69.592,119.7M97.9,101.779,67.164,88.22a6.736,6.736,0,0,0-.888-6.027L87.858,58.5a6.736,6.736,0,0,0,3.5.98,7.46,7.46,0,0,0,.831-.054l8.067,39.781a6.761,6.761,0,0,0-2.355,2.571m9.722-2.534a6.735,6.735,0,0,0-4.5-1.064l-8.07-39.8a6.8,6.8,0,0,0,2.135-2.23l17.3,6.486a6.009,6.009,0,0,0-.03.608,6.774,6.774,0,0,0,5.445,6.641A55.835,55.835,0,0,1,107.62,99.246" transform="translate(0 0.001)" fill="#1e535a"/>
        </g>
      </g>
    </g>
    <g id="Elipse_13614" data-name="Elipse 13614" transform="translate(24.387 23.788)" fill="#fff" stroke="#1e535a" stroke-width="3">
      <ellipse cx="39.732" cy="39.733" rx="39.732" ry="39.733" stroke="none"/>
      <ellipse cx="39.732" cy="39.733" rx="38.232" ry="38.233" fill="none"/>
    </g>
    <g id="Grupo_1212078" data-name="Grupo 1212078" transform="translate(38.387 42.788)">
      <g id="Grupo_1212077" data-name="Grupo 1212077" clip-path="url(#clip-path-2)">
        <path id="Trazado_1276608" data-name="Trazado 1276608" d="M94.439,55.228,91,55.177a9.165,9.165,0,0,1-6.02-2.7l-7.6-7.119-2.63,4.988a9.652,9.652,0,0,1-9.809,5.34l0-3.356a6.22,6.22,0,0,0,6.787-3.375l3.142-5.934-2.533-2.4a6.8,6.8,0,0,0-4.711-1.958l-2.683-.014V35.339l2.363-.022a10.346,10.346,0,0,1,6.782,2.415l2.4,2.255,4.1-7.713-8.585-8.016a6.642,6.642,0,0,0-4.439-1.7l-2.629-.032V19.218l3.024.053a9.394,9.394,0,0,1,6.219,2.484l8.031,7.5,2.628-4.962a9.391,9.391,0,0,1,9.61-4.986l-.021,3.3a6.252,6.252,0,0,0-6.746,3.384l-2.956,5.594,2.194,2.094c2.337,2.232,4.308,2.218,7.5,2.128l.014,3.336c-3.585.189-6.471-.163-9.279-2.571L83.1,34.64l-4.1,7.7,8.328,7.785a6.5,6.5,0,0,0,4.291,1.749l2.823.051Z" transform="translate(-54.407 -16.101)" fill="#1e535a"/>
        <path id="Trazado_1276609" data-name="Trazado 1276609" d="M9.13,4.565A4.565,4.565,0,1,1,4.565,0,4.565,4.565,0,0,1,9.13,4.565" fill="#1e535a"/>
        <path id="Trazado_1276610" data-name="Trazado 1276610" d="M9.13,103.663A4.565,4.565,0,1,1,4.565,99.1a4.565,4.565,0,0,1,4.565,4.565" transform="translate(0 -83.024)" fill="#1e535a"/>
        <path id="Trazado_1276611" data-name="Trazado 1276611" d="M9.13,207.2a4.565,4.565,0,1,1-4.565-4.565A4.565,4.565,0,0,1,9.13,207.2" transform="translate(0 -169.763)" fill="#1e535a"/>
        <path id="Trazado_1276612" data-name="Trazado 1276612" d="M265.2,4.565A4.565,4.565,0,1,1,260.633,0,4.565,4.565,0,0,1,265.2,4.565" transform="translate(-214.532)" fill="#1e535a"/>
        <path id="Trazado_1276613" data-name="Trazado 1276613" d="M265.2,103.663a4.565,4.565,0,1,1-4.565-4.565,4.565,4.565,0,0,1,4.565,4.565" transform="translate(-214.532 -83.024)" fill="#1e535a"/>
        <path id="Trazado_1276614" data-name="Trazado 1276614" d="M265.2,207.2a4.565,4.565,0,1,1-4.565-4.565A4.565,4.565,0,0,1,265.2,207.2" transform="translate(-214.532 -169.763)" fill="#1e535a"/>
      </g>
    </g>
  </g>
</svg>
