<svg xmlns="http://www.w3.org/2000/svg" xmlns:xlink="http://www.w3.org/1999/xlink" width="464.289" height="241.001" viewBox="0 0 464.289 241.001">
  <defs>
    <clipPath id="clip-path">
      <rect id="Rectángulo_461853" data-name="Rectángulo 461853" width="397.333" height="239.736" fill="none"/>
    </clipPath>
    <clipPath id="clip-path-3">
      <rect id="Rectángulo_461844" data-name="Rectángulo 461844" width="71.489" height="82.147" fill="none"/>
    </clipPath>
    <clipPath id="clip-path-4">
      <rect id="Rectángulo_461848" data-name="Rectángulo 461848" width="15.998" height="20.861" fill="none"/>
    </clipPath>
    <clipPath id="clip-path-5">
      <rect id="Rectángulo_461849" data-name="Rectángulo 461849" width="5.614" height="10.426" fill="none"/>
    </clipPath>
    <clipPath id="clip-path-6">
      <rect id="Rectángulo_461850" data-name="Rectángulo 461850" width="72.835" height="50.667" fill="none"/>
    </clipPath>
  </defs>
  <g id="Grupo_1211947" data-name="Grupo 1211947" transform="translate(-1017.711 -1846.001)">
    <path id="Trazado_1272217" data-name="Trazado 1272217" d="M232.145-3.5C87.934-82.482,0,44.823,0,104.436S17.587,211.206,232.145,212.376,464.289,164.05,464.289,104.436,376.356,75.477,232.145-3.5Z" transform="translate(1017.711 1874.606)" fill="#ffe79e"/>
    <g id="Grupo_1212198" data-name="Grupo 1212198" transform="translate(1050.711 1847.266)">
      <g id="Grupo_1212197" data-name="Grupo 1212197" clip-path="url(#clip-path)">
        <g id="Grupo_1212196" data-name="Grupo 1212196">
          <g id="Grupo_1212195" data-name="Grupo 1212195" clip-path="url(#clip-path)">
            <path id="Trazado_1276941" data-name="Trazado 1276941" d="M11.823,121.65a4.635,4.635,0,0,1,3.909-4.325,6.545,6.545,0,0,1,12.676-1.214,5.486,5.486,0,0,1,7.852,4.947,5.557,5.557,0,0,1-.029.562h.458a3.347,3.347,0,1,1,0,6.694H12.268a3.346,3.346,0,0,1-.445-6.663" transform="translate(-3.686 -46.146)" fill="#7bb6ed"/>
            <path id="Trazado_1276942" data-name="Trazado 1276942" d="M366.3,14.353V10.818a.976.976,0,0,0-.976-.976h-1.076a.3.3,0,0,1-.286-.218,10.687,10.687,0,0,0-.908-2.191.3.3,0,0,1,.048-.356l.76-.76a.975.975,0,0,0,0-1.38l-2.5-2.5a.975.975,0,0,0-1.38,0l-.76.76a.3.3,0,0,1-.356.048,10.646,10.646,0,0,0-2.192-.908.3.3,0,0,1-.217-.286V.976A.976.976,0,0,0,355.486,0H351.95a.976.976,0,0,0-.976.976V2.051a.3.3,0,0,1-.218.286,10.687,10.687,0,0,0-2.191.908.3.3,0,0,1-.356-.049l-.76-.76a.975.975,0,0,0-1.38,0l-2.5,2.5a.975.975,0,0,0,0,1.38l.76.76a.3.3,0,0,1,.049.356,10.639,10.639,0,0,0-.908,2.192.3.3,0,0,1-.286.218h-1.075a.976.976,0,0,0-.976.976v3.535a.976.976,0,0,0,.976.976h1.075a.3.3,0,0,1,.286.218,10.639,10.639,0,0,0,.908,2.192.3.3,0,0,1-.049.356l-.76.76a.975.975,0,0,0,0,1.38l2.5,2.5a.975.975,0,0,0,1.38,0l.76-.76a.3.3,0,0,1,.356-.049,10.687,10.687,0,0,0,2.191.908.3.3,0,0,1,.218.286v1.076a.976.976,0,0,0,.976.976h3.535a.976.976,0,0,0,.976-.976V23.119a.3.3,0,0,1,.217-.286,10.646,10.646,0,0,0,2.192-.908.3.3,0,0,1,.356.048l.76.76a.975.975,0,0,0,1.38,0l2.5-2.5a.975.975,0,0,0,0-1.38l-.76-.76a.3.3,0,0,1-.048-.356,10.687,10.687,0,0,0,.908-2.191.3.3,0,0,1,.286-.218h1.076a.976.976,0,0,0,.976-.976M358.7,17.619h0a7.043,7.043,0,1,1,2.063-4.98,7.042,7.042,0,0,1-2.063,4.98" transform="translate(-140.957)" fill="#7bb6ed"/>
            <path id="Trazado_1276943" data-name="Trazado 1276943" d="M664.379,94.133V91.592a.7.7,0,0,0-.7-.7H662.9a.215.215,0,0,1-.206-.157,7.649,7.649,0,0,0-.652-1.575.214.214,0,0,1,.035-.256l.547-.547a.7.7,0,0,0,0-.992l-1.8-1.8a.7.7,0,0,0-.992,0l-.547.546a.214.214,0,0,1-.256.035,7.665,7.665,0,0,0-1.576-.653.215.215,0,0,1-.157-.206v-.773a.7.7,0,0,0-.7-.7h-2.541a.7.7,0,0,0-.7.7v.773a.215.215,0,0,1-.157.206,7.647,7.647,0,0,0-1.575.653.214.214,0,0,1-.256-.035l-.547-.546a.7.7,0,0,0-.992,0l-1.8,1.8a.7.7,0,0,0,0,.992l.546.546a.215.215,0,0,1,.035.256,7.654,7.654,0,0,0-.652,1.575.215.215,0,0,1-.206.157h-.773a.7.7,0,0,0-.7.7v2.541a.7.7,0,0,0,.7.7h.773a.215.215,0,0,1,.206.156,7.672,7.672,0,0,0,.652,1.576.214.214,0,0,1-.035.256l-.546.546a.7.7,0,0,0,0,.992l1.8,1.8a.7.7,0,0,0,.992,0l.547-.547a.214.214,0,0,1,.256-.035,7.646,7.646,0,0,0,1.575.652.215.215,0,0,1,.157.206v.773a.7.7,0,0,0,.7.7H656.6a.7.7,0,0,0,.7-.7v-.773a.214.214,0,0,1,.157-.205,7.668,7.668,0,0,0,1.576-.653.214.214,0,0,1,.256.035l.547.547a.7.7,0,0,0,.992,0l1.8-1.8a.7.7,0,0,0,0-.992l-.547-.546a.214.214,0,0,1-.035-.256,7.667,7.667,0,0,0,.652-1.576.215.215,0,0,1,.206-.156h.773a.7.7,0,0,0,.7-.7m-5.467,2.348h0A5.062,5.062,0,1,1,660.4,92.9a5.062,5.062,0,0,1-1.483,3.579" transform="translate(-267.046 -34.633)" fill="#7bb6ed"/>
            <path id="Trazado_1276944" data-name="Trazado 1276944" d="M373.973,252.488H106.535V80.356a8.22,8.22,0,0,1,8.22-8.22h251a8.22,8.22,0,0,1,8.22,8.22Z" transform="translate(-44.02 -29.807)" fill="#344866"/>
            <rect id="Rectángulo_461843" data-name="Rectángulo 461843" width="252.23" height="157.059" transform="translate(70.118 53.976)" fill="#cfe8ff"/>
            <path id="Trazado_1276945" data-name="Trazado 1276945" d="M335.189,80.662a2.622,2.622,0,1,1-2.622-2.622,2.622,2.622,0,0,1,2.622,2.622" transform="translate(-136.334 -32.246)" fill="#fff"/>
            <path id="Trazado_1276946" data-name="Trazado 1276946" d="M383.447,388.007H51.959v-5.016a3.507,3.507,0,0,1,3.507-3.507H379.94a3.507,3.507,0,0,1,3.507,3.507Z" transform="translate(-21.47 -156.803)" fill="#568fcc"/>
            <path id="Trazado_1276947" data-name="Trazado 1276947" d="M364.443,398.784H70.961a40.194,40.194,0,0,1-19-4.776H383.446a40.192,40.192,0,0,1-19,4.776" transform="translate(-21.469 -162.805)" fill="#2a4579"/>
            <path id="Trazado_1276948" data-name="Trazado 1276948" d="M337.585,383.979h-42.84a4.494,4.494,0,0,1-4.495-4.495h51.83a4.5,4.5,0,0,1-4.495,4.495" transform="translate(-119.932 -156.803)" fill="#fff"/>
            <path id="Trazado_1276949" data-name="Trazado 1276949" d="M113.615,284.9s8.805,7.765,9.058,18.226-5.987,7.95-7.31,6.149-1.748-24.375-1.748-24.375" transform="translate(-46.946 -117.721)" fill="#42756b"/>
            <path id="Trazado_1276950" data-name="Trazado 1276950" d="M71.534,280.6a28.015,28.015,0,0,1-1.066-4.37c-.094-1.354,1.67-3.907,2.521-4.411s6.674-1.48,9.008-.882,7.25,2.016,9.455,2.08,2.4,4.03,2.4,4.03Z" transform="translate(-29.116 -111.875)" fill="#42756b"/>
            <path id="Trazado_1276951" data-name="Trazado 1276951" d="M82.214,278.042c-4.041,0-9.279.3-10.477.753S61.4,280.693,60.8,282.5s.758,22.2.309,25.665a46.257,46.257,0,0,1-1.347,7.681c-.449,1.055-2.844,3.615-2.544,5.121s3.592,4.067,4.34,4.217,14.068-2.711,22-2.711,12.273-.15,12.273-.15-2.1-31.178-2.694-34.944S88.2,279.849,87.6,279.4a13.218,13.218,0,0,0-5.388-1.355" transform="translate(-23.633 -114.887)" fill="#519074"/>
            <path id="Trazado_1276952" data-name="Trazado 1276952" d="M81.462,277.072s-2.076-.969-2.36-2.009,8.412-1.182,10.351-.378,2.476,1.4,2.1,2.286-7.138,1.242-8.321.96a3.96,3.96,0,0,1-1.768-.859" transform="translate(-32.682 -113.287)" fill="#30564d"/>
            <path id="Trazado_1276953" data-name="Trazado 1276953" d="M95.171,273.2c.038-.567.28-4.028.28-4.028l-11.859-9.264-.51,12.112,9.52,5.213Z" transform="translate(-34.33 -107.395)" fill="#e39992"/>
            <path id="Trazado_1276954" data-name="Trazado 1276954" d="M98.367,274.412l-.2,2.717c-6.279-.032-7.951-4.285-8.038-4.545a10.338,10.338,0,0,0,5.441,1.842,13.669,13.669,0,0,0,2.752-.05Z" transform="translate(-37.241 -112.632)" fill="#141b25"/>
            <path id="Trazado_1276955" data-name="Trazado 1276955" d="M95.432,236.371c5.739.667,9.051,4.171,7.7,9.19-1.762,6.52-.658,8.032-2.182,10.7-1.671,2.928-4.825,4.008-9.165,3.231-5.677-1.017-9.388-5.163-7.62-13.762,1.642-7.985,6.622-9.9,11.271-9.36" transform="translate(-34.592 -97.634)" fill="#e39992"/>
            <path id="Trazado_1276956" data-name="Trazado 1276956" d="M95.354,239.774s-.2-2.058-1.752-2.327c-2.066-.357-2.331,5.076-7.5,4,0,0-.191,4.475-4.725,4.127a34.087,34.087,0,0,0-.712,5.942s-2.793-.455-3.059-2.917.338-3.563.177-4.682-1.363-2.669.212-5.756c1.306-2.558,8.12-9.383,14.262-8.3a4.52,4.52,0,0,1,3.236,1.986,4.845,4.845,0,0,1,4.533.062c2.175,1.344,2.824,4.4,2.982,6.939a4.88,4.88,0,0,1-2.719,4.791c-1.9-.427-1.327-4.219-2.556-5.209-1.307-1.053-2.379,1.337-2.379,1.337" transform="translate(-31.896 -94.934)" fill="#141b25"/>
            <path id="Trazado_1276957" data-name="Trazado 1276957" d="M85.852,252.279a2.329,2.329,0,1,1-1.737-3.193,2.6,2.6,0,0,1,1.737,3.193" transform="translate(-33.603 -102.911)" fill="#e39992"/>
            <path id="Trazado_1276958" data-name="Trazado 1276958" d="M84.163,251.609a1.944,1.944,0,0,0,.966,2.625" transform="translate(-34.699 -103.965)" fill="none" stroke="#141b25" stroke-linecap="round" stroke-linejoin="round" stroke-width="0.508"/>
            <path id="Trazado_1276959" data-name="Trazado 1276959" d="M85.463,252.534a1.733,1.733,0,0,0-1.12,1.284" transform="translate(-34.851 -104.347)" fill="none" stroke="#141b25" stroke-linecap="round" stroke-linejoin="round" stroke-width="0.508"/>
            <path id="Trazado_1276960" data-name="Trazado 1276960" d="M106.725,255.861l-.692,1.214.346,1.936a.372.372,0,0,1-.423.432l-1.6-.251" transform="translate(-43.118 -105.722)" fill="none" stroke="#3d231f" stroke-linecap="round" stroke-linejoin="round" stroke-width="0.413"/>
            <path id="Trazado_1276961" data-name="Trazado 1276961" d="M97.313,252.343s1.77-1.108,2.965-.127" transform="translate(-40.21 -104.048)" fill="none" stroke="#1c212a" stroke-linecap="round" stroke-linejoin="round" stroke-width="1.032"/>
            <path id="Trazado_1276962" data-name="Trazado 1276962" d="M110.553,253.712s1-.38,2.116,1.2" transform="translate(-45.681 -104.817)" fill="none" stroke="#1c212a" stroke-linecap="round" stroke-linejoin="round" stroke-width="1.032"/>
            <path id="Trazado_1276963" data-name="Trazado 1276963" d="M102.1,263.822a5.811,5.811,0,0,1-1.39,2.512s-3.5-.2-3.006-3.64a.536.536,0,0,1,.134-.292.561.561,0,0,1,.815-.043,5.259,5.259,0,0,0,1.954,1.2,2.317,2.317,0,0,0,.241.076,1.365,1.365,0,0,0,.249.061c.086.021.171.04.258.053a1.473,1.473,0,0,0,.266.038,3.2,3.2,0,0,0,.479.034" transform="translate(-40.351 -108.343)" fill="#3d221f"/>
            <path id="Trazado_1276964" data-name="Trazado 1276964" d="M101.816,263.8a1.373,1.373,0,0,1-.9.677,3.673,3.673,0,0,1-2.956-2.076.561.561,0,0,1,.815-.043,5.252,5.252,0,0,0,1.954,1.2,1.38,1.38,0,0,0,.241.076,1.4,1.4,0,0,0,.249.06,1.42,1.42,0,0,0,.258.053,1.472,1.472,0,0,0,.266.038.211.211,0,0,0,.07.012" transform="translate(-40.479 -108.343)" fill="#fff"/>
            <path id="Trazado_1276965" data-name="Trazado 1276965" d="M100.684,268.005a3.394,3.394,0,0,1-2.466-1.556,2.11,2.11,0,0,1,1.464,0,1.929,1.929,0,0,1,1,1.551" transform="translate(-40.584 -110.042)" fill="#6c2e28"/>
            <path id="Trazado_1276966" data-name="Trazado 1276966" d="M100.116,256.03a.92.92,0,1,1-.768-1.052.921.921,0,0,1,.768,1.052" transform="translate(-40.612 -105.353)" fill="#1c212a"/>
            <path id="Trazado_1276967" data-name="Trazado 1276967" d="M109.8,257.511a.92.92,0,1,0,1.076-.733.92.92,0,0,0-1.076.733" transform="translate(-45.362 -106.094)" fill="#1c212a"/>
            <path id="Trazado_1276968" data-name="Trazado 1276968" d="M105,279.62s-1.365,5.008-5.7,5.328a40.56,40.56,0,0,0,1.92-3.622,17.538,17.538,0,0,0,.808-2.748A9.423,9.423,0,0,1,105,279.62" transform="translate(-41.034 -115.109)" fill="#42756b"/>
            <path id="Trazado_1276969" data-name="Trazado 1276969" d="M88.673,285.132a23.673,23.673,0,0,1-4.473-.378c-2.395-.442-7.675-4.287-10.625-4.4,1.236-.971,4.488-1.221,5.652-1.334,0,0,2.982.565,4.055,2.141s5.391,3.971,5.391,3.971" transform="translate(-30.401 -115.292)" fill="#42756b"/>
            <path id="Trazado_1276970" data-name="Trazado 1276970" d="M94.331,287.543a.558.558,0,1,1-.558-.558.558.558,0,0,1,.558.558" transform="translate(-38.517 -118.582)" fill="#30564d"/>
            <path id="Trazado_1276971" data-name="Trazado 1276971" d="M102.892,286.379a.558.558,0,1,1-.558-.558.558.558,0,0,1,.558.558" transform="translate(-42.054 -118.102)" fill="#30564d"/>
            <path id="Trazado_1276972" data-name="Trazado 1276972" d="M94.395,288.237a15.28,15.28,0,0,1,.905,7.108c-.435,4.048-.577,4.613-.482,5.507" transform="translate(-39.004 -119.1)" fill="none" stroke="#fff" stroke-linecap="round" stroke-linejoin="round" stroke-width="0.765"/>
            <path id="Trazado_1276973" data-name="Trazado 1276973" d="M95,310.885h-.819a.283.283,0,0,1-.283-.283v-.971a.692.692,0,0,1,1.385,0v.971a.283.283,0,0,1-.283.283" transform="translate(-38.8 -127.654)" fill="#fff"/>
            <path id="Trazado_1276974" data-name="Trazado 1276974" d="M102.865,286.772a15.28,15.28,0,0,1,.905,7.108c-.435,4.048-.577,4.613-.482,5.507" transform="translate(-42.504 -118.494)" fill="none" stroke="#fff" stroke-linecap="round" stroke-linejoin="round" stroke-width="0.765"/>
            <path id="Trazado_1276975" data-name="Trazado 1276975" d="M103.472,309.341h-.819a.283.283,0,0,1-.283-.283v-.971a.692.692,0,1,1,1.385,0v.971a.283.283,0,0,1-.283.283" transform="translate(-42.299 -127.016)" fill="#fff"/>
            <path id="Trazado_1276976" data-name="Trazado 1276976" d="M95.889,351.451s-4.341.151-12.272.151-21.253,2.862-22,2.711c-.717-.144-3.77-2.5-4.287-4.024a13.784,13.784,0,0,0,11.26.472c4.015-1.368,18.137-3.354,27.156-1.435.092,1.338.144,2.125.144,2.125" transform="translate(-23.688 -144.013)" fill="#42756b"/>
            <path id="Trazado_1276977" data-name="Trazado 1276977" d="M78.3,309.792s-3.845,1.371-2.7,8.689c0,0-1.179,2.291-11.577,1.181-3.395-.363-15.522-.9-18.156-4.106-3.483-4.233,3.064-18.916,4.745-23.029s4.2-9.045,7.727-8.866c1.769.089,2.916,1.118,3.582,5.479.663,4.325-5.134,18.551-5.19,18.694.056-.045,10.823,1.021,14.109.945,1.734-.041,6.346-1.469,7.462,1.012" transform="translate(-18.537 -117.207)" fill="#42756b"/>
            <path id="Trazado_1276978" data-name="Trazado 1276978" d="M100.707,335.541c-1.179-1.726-.948-3.006-.391-3.9s3.688-3.227,5.011-3.4a62.893,62.893,0,0,1,9.753.567c.573.285.289,1.515-1.176,1.544s-5.231.06-5.231.06.884,1,.157,1.809c0,0,.625,1.011-.174,1.627a1.253,1.253,0,0,1-.6,1.838,9.03,9.03,0,0,1-3.98,1.071c-1.824.02-2.689-.218-3.369-1.214" transform="translate(-41.262 -135.612)" fill="#e39992"/>
            <path id="Trazado_1276979" data-name="Trazado 1276979" d="M100.531,337.026a13.415,13.415,0,0,1-3.436-.141c-1.143-7.319,2.7-8.689,2.7-8.689l2.741.007s.611.265.35.488a8.582,8.582,0,0,0-1.243.746c-1.019,1.435-2.244,2.793-.707,7.154.031.088-.18.35-.408.436" transform="translate(-40.032 -135.611)" fill="#fff"/>
            <path id="Trazado_1276980" data-name="Trazado 1276980" d="M110.165,334.063s.624,1.01-.175,1.627a1.252,1.252,0,0,1-.6,1.837,9.027,9.027,0,0,1-3.98,1.072,7.347,7.347,0,0,1-1.907-.163h0c-.167-.472-.3-.91-.406-1.316.06.228,2.908,1.205,6.156-.661,0,0,.391-.908.222-1.253a1.407,1.407,0,0,0,.4-1,1.952,1.952,0,0,0,.4-1.546,1.192,1.192,0,0,1-.106,1.407" transform="translate(-42.6 -137.454)" fill="#d58681"/>
            <path id="Trazado_1276981" data-name="Trazado 1276981" d="M100.934,340.967v0c.029.089-.182.349-.408.435a13.444,13.444,0,0,1-3.437-.142,16.516,16.516,0,0,1-.211-2.475,5.764,5.764,0,0,0,2.218.506,1.787,1.787,0,0,0,1.248-.468.1.1,0,0,1,0,.015c0,.015.006.037.013.068,0,.009,0,.016.005.025.029.154.063.312.1.476.006.026.011.051.018.076.016.065.031.123.043.167.106.405.238.844.405,1.316" transform="translate(-40.03 -139.988)" fill="#deddeb"/>
            <path id="Trazado_1276982" data-name="Trazado 1276982" d="M116.35,333.2s13.553-4.841,20.932-1.936c8.98,3.535,1.341,15.006-5.426,23.419-4.633,5.759-15.092,14.479-15.092,14.479l-5.686-5.374s9.84-13.471,12.782-22.263l-11.677,1.083Z" transform="translate(-45.898 -136.494)" fill="#23283b"/>
            <path id="Trazado_1276983" data-name="Trazado 1276983" d="M131.659,329.733H116.387a1.609,1.609,0,0,1-1.528-2.115l7.92-23.925a1.61,1.61,0,0,1,1.527-1.1h15.273a1.609,1.609,0,0,1,1.527,2.115l-7.92,23.924a1.608,1.608,0,0,1-1.527,1.1" transform="translate(-47.426 -125.03)" fill="#ca7c2e"/>
            <path id="Trazado_1276984" data-name="Trazado 1276984" d="M133.484,329.733H118.212a1.609,1.609,0,0,1-1.528-2.115l7.92-23.925a1.61,1.61,0,0,1,1.527-1.1H141.4a1.609,1.609,0,0,1,1.527,2.115l-7.919,23.924a1.61,1.61,0,0,1-1.528,1.1" transform="translate(-48.18 -125.03)" fill="#ecac3f"/>
            <path id="Trazado_1276985" data-name="Trazado 1276985" d="M133.48,306.852c-.232.621-.718,1.015-1.084.878s-.475-.752-.243-1.374.717-1.015,1.084-.878.475.752.243,1.374" transform="translate(-54.555 -126.213)" fill="#fff"/>
            <path id="Trazado_1276986" data-name="Trazado 1276986" d="M132.154,310.831c-.084.225-.26.367-.393.318s-.172-.272-.088-.5.26-.367.393-.318.172.272.088.5" transform="translate(-54.389 -128.226)" fill="#fff"/>
            <path id="Trazado_1276987" data-name="Trazado 1276987" d="M183.937,393.212l-6.964-1.3,2.5-8.816,6.583,2.641Z" transform="translate(-73.125 -158.296)" fill="#e69a84"/>
            <path id="Trazado_1276988" data-name="Trazado 1276988" d="M64.179,350.316s5.519-1.168,9.348-1.736,17.451-7.038,21.563-8.929,9.481-.476,16.463,5.1c6.083,4.855,18.568,15.487,25.495,21,0,0-1.838,6.431-5.241,8.983a225.015,225.015,0,0,1-31.43-19.137s-4.987,6.512-13.062,8.362c-3.239.742-10.14.938-14.83.45-12.4-1.289-8.3-14.09-8.3-14.09" transform="translate(-26.251 -140.017)" fill="#2a2e44"/>
            <path id="Trazado_1276989" data-name="Trazado 1276989" d="M198.373,392.947s-1.415,4.1-4.831,4.09c-3.195-.009-3.222-1.553-4.86-1.958s-3.608-.295-4.655-.553-.7-.87-.393-.95a.616.616,0,0,0,.3-.823,1.219,1.219,0,0,1-.634-1.381l.965-3.908a1.22,1.22,0,0,1,1.2-.928.615.615,0,0,0,.114-.869c-.238-.216-.256-.917.79-.658s2.584,1.894,4.223,2.3,3.624-.8,5.458.018c3.553,1.591,2.313,5.62,2.313,5.62" transform="translate(-75.726 -159.063)" fill="#fff"/>
            <path id="Trazado_1276990" data-name="Trazado 1276990" d="M196.985,397c-1.336-.091-3.223-.376-2.62-.28,3.863.613,5.616-4.017,5.616-4.017s1.24-4.029-2.313-5.62c-1.834-.822-3.819.387-5.458-.018-1.58-.39-4.01-1.871-5.052-2.213-.006-.271,1.025-.638,1.92-.417,1.11.274,2.541,2.162,4.277,2.591s3.408-1.384,6.12-.1c3.722,1.765,2.448,5.948,2.448,5.948s-1.28,4.372-4.936,4.123" transform="translate(-77.333 -158.822)" fill="#cf4694"/>
            <path id="Trazado_1276991" data-name="Trazado 1276991" d="M184.824,387.706l7.212,2.81a1.526,1.526,0,0,1,1.022,1.822l-.41,1.66a1.526,1.526,0,0,1-1.609,1.155l-8.076-.781a1.527,1.527,0,0,1-1.116-1.848l.931-3.765a1.526,1.526,0,0,1,2.046-1.052" transform="translate(-75.121 -160.156)" fill="#cf4694"/>
            <path id="Trazado_1276992" data-name="Trazado 1276992" d="M98.7,394.48s2.764,3.342,5.96,2.133c2.988-1.131,2.471-2.585,3.863-3.54s3.275-1.543,4.165-2.153.354-1.062.034-1.027a.616.616,0,0,1-.573-.664,1.22,1.22,0,0,0,.109-1.516l-2.277-3.32a1.22,1.22,0,0,0-1.453-.445.615.615,0,0,1-.413-.773c.147-.286-.082-.948-.971-.339s-1.753,2.682-3.146,3.637-3.676.52-5.1,1.933c-2.768,2.737-.192,6.075-.192,6.075" transform="translate(-40.333 -158.085)" fill="#fff"/>
            <path id="Trazado_1276993" data-name="Trazado 1276993" d="M101.754,397.367c1.219-.555,2.885-1.483,2.355-1.182-3.4,1.931-6.669-1.789-6.669-1.789s-2.575-3.336.192-6.075c1.429-1.414,3.712-.979,5.1-1.934,1.343-.921,3.1-3.16,3.953-3.846-.089-.256-1.183-.238-1.944.284-.942.646-1.62,2.916-3.094,3.927s-3.676-.1-5.764,2.059c-2.865,2.96-.2,6.428-.2,6.428s2.734,3.644,6.069,2.128" transform="translate(-39.072 -158)" fill="#cf4694"/>
            <path id="Trazado_1276994" data-name="Trazado 1276994" d="M111.859,384.725l-5.766,5.164a1.526,1.526,0,0,0-.317,2.064l.968,1.411a1.526,1.526,0,0,0,1.912.516l7.287-3.568a1.526,1.526,0,0,0,.4-2.122l-2.193-3.2a1.526,1.526,0,0,0-2.286-.266" transform="translate(-43.596 -158.805)" fill="#cf4694"/>
            <g id="Grupo_1212185" data-name="Grupo 1212185" transform="translate(258.463 116.068)" opacity="0.5">
              <g id="Grupo_1212184" data-name="Grupo 1212184">
                <g id="Grupo_1212183" data-name="Grupo 1212183" clip-path="url(#clip-path-3)">
                  <path id="Trazado_1276995" data-name="Trazado 1276995" d="M511.953,279.945H444.734a4.27,4.27,0,0,1-4.27-4.27V202.068a4.27,4.27,0,0,1,4.27-4.27h67.218Z" transform="translate(-440.463 -197.798)" fill="#2a4579"/>
                </g>
              </g>
            </g>
            <path id="Trazado_1276996" data-name="Trazado 1276996" d="M485.5,191.662h98.378a2.852,2.852,0,0,1,2.852,2.851v3.293H485.5Z" transform="translate(-200.611 -79.195)" fill="#ecac3f"/>
            <path id="Trazado_1276997" data-name="Trazado 1276997" d="M570.376,196.456v4.031H445.917v-8.433a3.661,3.661,0,0,1,3.661-3.661h17.278a3.661,3.661,0,0,1,3.661,3.661v.741a3.661,3.661,0,0,0,3.662,3.661Z" transform="translate(-184.253 -77.844)" fill="#fff"/>
            <path id="Trazado_1276998" data-name="Trazado 1276998" d="M567.846,281.459h-119.4a2.531,2.531,0,0,1-2.531-2.531V209H570.376v69.925a2.531,2.531,0,0,1-2.531,2.531" transform="translate(-184.253 -86.36)" fill="#ffb851"/>
            <path id="Trazado_1276999" data-name="Trazado 1276999" d="M584.959,197.42H496.541a1.735,1.735,0,1,1,0-3.469h88.418a1.735,1.735,0,0,1,0,3.469" transform="translate(-204.454 -80.141)" fill="#fff"/>
            <path id="Trazado_1277000" data-name="Trazado 1277000" d="M498.636,196.161a.83.83,0,1,1-.83-.83A.83.83,0,0,1,498.636,196.161Z" transform="translate(-205.351 -80.711)" fill="none" stroke="#ecac3f" stroke-miterlimit="10" stroke-width="0.482"/>
            <line id="Línea_3414" data-name="Línea 3414" x2="0.429" y2="0.429" transform="translate(293.049 116.029)" fill="none" stroke="#ecac3f" stroke-miterlimit="10" stroke-width="0.482"/>
            <path id="Trazado_1277001" data-name="Trazado 1277001" d="M455.706,195.686a1.735,1.735,0,1,1-1.735-1.735,1.734,1.734,0,0,1,1.735,1.735" transform="translate(-186.865 -80.141)" fill="#e7c71f"/>
            <path id="Trazado_1277002" data-name="Trazado 1277002" d="M465.6,195.686a1.735,1.735,0,1,1-1.735-1.735,1.734,1.734,0,0,1,1.735,1.735" transform="translate(-190.953 -80.141)" fill="#519074"/>
            <path id="Trazado_1277003" data-name="Trazado 1277003" d="M475.5,195.686a1.735,1.735,0,1,1-1.735-1.735,1.734,1.734,0,0,1,1.735,1.735" transform="translate(-195.042 -80.141)" fill="#3e6faf"/>
            <path id="Rectángulo_461845" data-name="Rectángulo 461845" d="M4.584,0H22.035A4.585,4.585,0,0,1,26.62,4.585V22.036a4.584,4.584,0,0,1-4.584,4.584H4.584A4.584,4.584,0,0,1,0,22.036V4.584A4.584,4.584,0,0,1,4.584,0Z" transform="translate(349.689 131.223)" fill="none" stroke="#fff" stroke-miterlimit="10" stroke-width="1.069"/>
            <path id="Rectángulo_461846" data-name="Rectángulo 461846" d="M3.762,0H18.081a3.761,3.761,0,0,1,3.761,3.761V18.079a3.762,3.762,0,0,1-3.762,3.762H3.761A3.761,3.761,0,0,1,0,18.08V3.762A3.762,3.762,0,0,1,3.762,0Z" transform="translate(272.542 163.085)" fill="none" stroke="#fff" stroke-linecap="round" stroke-linejoin="round" stroke-width="0.75" stroke-dasharray="2.848 2.848"/>
            <path id="Rectángulo_461847" data-name="Rectángulo 461847" d="M3.761,0H18.079a3.762,3.762,0,0,1,3.762,3.762V18.08a3.761,3.761,0,0,1-3.761,3.761H3.761A3.761,3.761,0,0,1,0,18.08V3.761A3.761,3.761,0,0,1,3.761,0Z" transform="translate(302.434 163.085)" fill="none" stroke="#fff" stroke-linecap="round" stroke-linejoin="round" stroke-width="0.75" stroke-dasharray="2.848 2.848"/>
            <path id="Trazado_1277004" data-name="Trazado 1277004" d="M601.487,252.816l7.438-13.18,5.742,9.134,3.132-3.653,3.784,7.7Z" transform="translate(-248.535 -99.018)" fill="#fff"/>
            <path id="Trazado_1277005" data-name="Trazado 1277005" d="M628.514,235.249a2.284,2.284,0,1,1-2.284-2.284,2.284,2.284,0,0,1,2.284,2.284" transform="translate(-257.816 -96.261)" fill="#fff"/>
            <path id="Trazado_1277006" data-name="Trazado 1277006" d="M627.337,278.431H610.093a.752.752,0,0,1-.752-.752V275.75a.752.752,0,0,1,.752-.752h17.244a.752.752,0,0,1,.752.752v1.929a.752.752,0,0,1-.752.752" transform="translate(-251.78 -113.629)" fill="#fff"/>
            <path id="Trazado_1277007" data-name="Trazado 1277007" d="M609.463,285.16H565.9a.478.478,0,0,1-.478-.478v-.431a.478.478,0,0,1,.478-.478h43.566a.478.478,0,0,1,.478.478v.431a.478.478,0,0,1-.478.478" transform="translate(-233.632 -117.255)" fill="#fff"/>
            <path id="Trazado_1277008" data-name="Trazado 1277008" d="M609.463,290.191H565.9a.478.478,0,0,1-.478-.478v-.431a.478.478,0,0,1,.478-.478h43.566a.478.478,0,0,1,.478.478v.431a.478.478,0,0,1-.478.478" transform="translate(-233.632 -119.334)" fill="#fff"/>
            <path id="Trazado_1277009" data-name="Trazado 1277009" d="M630.7,295.221h-13.4a.478.478,0,0,1-.478-.478v-.431a.478.478,0,0,1,.478-.478h13.4a.478.478,0,0,1,.478.478v.431a.478.478,0,0,1-.478.478" transform="translate(-254.874 -121.413)" fill="#fff"/>
            <path id="Trazado_1277010" data-name="Trazado 1277010" d="M465.124,228.789h17.244a.752.752,0,0,0,.752-.752v-1.929a.752.752,0,0,0-.752-.752H465.124a.752.752,0,0,0-.752.752v1.929a.752.752,0,0,0,.752.752" transform="translate(-191.879 -93.117)" fill="#fff"/>
            <path id="Trazado_1277011" data-name="Trazado 1277011" d="M464.85,235.517h43.566a.478.478,0,0,0,.478-.478v-.431a.478.478,0,0,0-.478-.478H464.85a.478.478,0,0,0-.478.478v.431a.478.478,0,0,0,.478.478" transform="translate(-191.879 -96.743)" fill="#fff"/>
            <path id="Trazado_1277012" data-name="Trazado 1277012" d="M464.85,240.548h43.566a.478.478,0,0,0,.478-.478v-.431a.478.478,0,0,0-.478-.478H464.85a.478.478,0,0,0-.478.478v.431a.478.478,0,0,0,.478.478" transform="translate(-191.879 -98.822)" fill="#fff"/>
            <path id="Trazado_1277013" data-name="Trazado 1277013" d="M464.85,245.579h13.4a.478.478,0,0,0,.478-.478v-.431a.478.478,0,0,0-.478-.478h-13.4a.478.478,0,0,0-.478.478v.431a.478.478,0,0,0,.478.478" transform="translate(-191.879 -100.9)" fill="#fff"/>
            <path id="Trazado_1277014" data-name="Trazado 1277014" d="M464.85,257.457h43.566a.478.478,0,0,0,.478-.478v-.431a.478.478,0,0,0-.478-.478H464.85a.478.478,0,0,0-.478.478v.431a.478.478,0,0,0,.478.478" transform="translate(-191.879 -105.808)" fill="#fff"/>
            <path id="Trazado_1277015" data-name="Trazado 1277015" d="M464.85,262.488h13.4a.478.478,0,0,0,.478-.478v-.431a.478.478,0,0,0-.478-.478h-13.4a.478.478,0,0,0-.478.478v.431a.478.478,0,0,0,.478.478" transform="translate(-191.879 -107.887)" fill="#fff"/>
            <path id="Trazado_1277016" data-name="Trazado 1277016" d="M609.463,309.138H565.9a.478.478,0,0,1-.478-.478v-.431a.478.478,0,0,1,.478-.478h43.566a.478.478,0,0,1,.478.478v.431a.478.478,0,0,1-.478.478" transform="translate(-233.632 -127.163)" fill="#fff"/>
            <path id="Trazado_1277017" data-name="Trazado 1277017" d="M630.7,314.169h-13.4a.478.478,0,0,1-.478-.478v-.431a.478.478,0,0,1,.478-.478h13.4a.478.478,0,0,1,.478.478v.431a.478.478,0,0,1-.478.478" transform="translate(-254.874 -129.242)" fill="#fff"/>
            <path id="Trazado_1277018" data-name="Trazado 1277018" d="M519.548,139.516s13.945-1.948,18.717-1.621l2.545-6.157s5.511-1.5,10.383,1.083c0,0-2.346,9.567-4.633,11.487-2.6,2.182-18.714,1.26-25.962.77Z" transform="translate(-214.678 -54.256)" fill="#e29680"/>
            <path id="Trazado_1277019" data-name="Trazado 1277019" d="M544.575,160.918s-26.915-1.012-32.715,1.87c-4.587,2.28-9.552,46.135-9.552,46.135l7.9.587s9.411-33.137,9.409-35.994l19,2s9.729,1.627,11.318-5.6-5.354-9-5.354-9" transform="translate(-207.554 -66.42)" fill="#e29680"/>
            <path id="Trazado_1277020" data-name="Trazado 1277020" d="M504.179,240.739l-.53,7.132-18.6-1.382s0-4.517,1.931-5.28a28.282,28.282,0,0,1,5.012-1.214s-.045-3.306,2.563-3.112,1.392,3.05,1.392,3.05a5.978,5.978,0,0,0,6.718-.157,1.016,1.016,0,0,1,1.512.964" transform="translate(-200.424 -97.877)" fill="#69d7e5"/>
            <path id="Trazado_1277021" data-name="Trazado 1277021" d="M496.462,242.289s1.014.268,1.124,1.863" transform="translate(-205.139 -100.114)" fill="none" stroke="#141b25" stroke-linecap="round" stroke-linejoin="round" stroke-width="0.305"/>
            <path id="Trazado_1277022" data-name="Trazado 1277022" d="M497.685,245.422a.4.4,0,1,0,.424-.365.4.4,0,0,0-.424.365" transform="translate(-205.644 -101.257)" fill="#141b25"/>
            <path id="Trazado_1277023" data-name="Trazado 1277023" d="M492.489,243.036s1.014.268,1.124,1.863" transform="translate(-203.497 -100.423)" fill="none" stroke="#141b25" stroke-linecap="round" stroke-linejoin="round" stroke-width="0.305"/>
            <path id="Trazado_1277024" data-name="Trazado 1277024" d="M493.712,246.17a.4.4,0,1,0,.424-.365.4.4,0,0,0-.424.365" transform="translate(-204.002 -101.566)" fill="#141b25"/>
            <path id="Trazado_1277025" data-name="Trazado 1277025" d="M485.051,252.086l18.6,1.383.123-1.658-18.6-1.383a13.709,13.709,0,0,0-.123,1.658" transform="translate(-200.424 -103.477)" fill="#141b25"/>
            <path id="Trazado_1277026" data-name="Trazado 1277026" d="M559.026,154.335a13.779,13.779,0,0,0-3.063,3.32,104.784,104.784,0,0,0-11.184.213s2.5,1.4,2.266,6.942a10.988,10.988,0,0,1-2.5,6.846s14.9,2.149,21.307,2.161,7.389-18.04,7.389-18.04Z" transform="translate(-225.005 -63.771)" fill="#66306b"/>
            <path id="Trazado_1277027" data-name="Trazado 1277027" d="M548.287,160.065s3.986,1.142,1.125,14.414" transform="translate(-226.553 -66.139)" fill="none" stroke="#141b25" stroke-linecap="round" stroke-linejoin="round" stroke-width="0.365"/>
            <path id="Trazado_1277028" data-name="Trazado 1277028" d="M559.991,167.564s-26.918,4.24-31.128,9.161c-3.329,3.893,7.848,43.267,7.848,43.267l7.5-2.55s-2.892-31.251-4.012-33.878l19.672-1.146s9.414-.533,8.049-7.8-7.929-7.05-7.929-7.05" transform="translate(-218.271 -69.238)" fill="#e29680"/>
            <path id="Trazado_1277029" data-name="Trazado 1277029" d="M545.6,250.988l2.3,6.771-17.655,6s-1.772-4.156-.289-5.614a28.271,28.271,0,0,1,4.137-3.078s-1.336-3.025,1.141-3.867,2.475,2.262,2.475,2.262a5.978,5.978,0,0,0,6.121-2.773,1.016,1.016,0,0,1,1.768.3" transform="translate(-218.735 -103.422)" fill="#69d7e5"/>
            <path id="Trazado_1277030" data-name="Trazado 1277030" d="M537.075,258.682s1.038-.151,1.763,1.274" transform="translate(-221.92 -106.886)" fill="none" stroke="#141b25" stroke-linecap="round" stroke-linejoin="round" stroke-width="0.305"/>
            <path id="Trazado_1277031" data-name="Trazado 1277031" d="M539.513,260.959a.4.4,0,1,0,.247-.5.4.4,0,0,0-.247.5" transform="translate(-222.919 -107.612)" fill="#141b25"/>
            <path id="Trazado_1277032" data-name="Trazado 1277032" d="M533.711,260.925s1.037-.151,1.763,1.274" transform="translate(-220.53 -107.812)" fill="none" stroke="#141b25" stroke-linecap="round" stroke-linejoin="round" stroke-width="0.305"/>
            <path id="Trazado_1277033" data-name="Trazado 1277033" d="M536.149,263.2a.4.4,0,1,0,.247-.5.4.4,0,0,0-.247.5" transform="translate(-221.529 -108.539)" fill="#141b25"/>
            <path id="Trazado_1277034" data-name="Trazado 1277034" d="M530.486,267.9l17.658-6-.535-1.574-17.658,6a13.714,13.714,0,0,0,.535,1.574" transform="translate(-218.976 -107.567)" fill="#141b25"/>
            <path id="Trazado_1277035" data-name="Trazado 1277035" d="M588.17,154.335s4.936,7.763,2.42,15.994c-2.752,9-24.8,7.483-30.244,7.456a28.257,28.257,0,0,0,.233-7.465,10.393,10.393,0,0,0-3.019-5.947c1.573-.922,10.608-2.908,10.749-3.25a39.9,39.9,0,0,1,2.878-6.411Z" transform="translate(-230.384 -63.771)" fill="#66306b"/>
            <path id="Trazado_1277036" data-name="Trazado 1277036" d="M540.173,174.735c-5.19,1.444-9.77,3.153-11.31,4.954-.811.948-.761,4-.222,8.076" transform="translate(-218.271 -72.201)" fill="none" stroke="#141b25" stroke-linecap="round" stroke-linejoin="round" stroke-width="0.365"/>
            <path id="Trazado_1277037" data-name="Trazado 1277037" d="M593.284,156.165a85.8,85.8,0,0,1-10.677,1.486,39.915,39.915,0,0,1-8.668-.215,13.242,13.242,0,0,1-6.34-2.285c.542-.49.953-.816.953-.816h23.769a16.453,16.453,0,0,1,.962,1.83" transform="translate(-234.533 -63.771)" fill="#141b25"/>
            <path id="Trazado_1277038" data-name="Trazado 1277038" d="M571.023,154.976a39.88,39.88,0,0,0-2.878,6.41c-.141.343-9.176,2.328-10.749,3.251a2.072,2.072,0,0,0-.232.646" transform="translate(-230.221 -64.036)" fill="none" stroke="#141b25" stroke-linecap="round" stroke-linejoin="round" stroke-width="0.365"/>
            <path id="Trazado_1277039" data-name="Trazado 1277039" d="M582.585,163.563a19.893,19.893,0,0,0-9.279.786,10.519,10.519,0,0,0-3.653-2.2" transform="translate(-235.381 -67)" fill="none" stroke="#141b25" stroke-linecap="round" stroke-linejoin="round" stroke-width="0.365"/>
            <path id="Trazado_1277040" data-name="Trazado 1277040" d="M586.28,154.976a13.4,13.4,0,0,1,1.73,11.889c-1.853,5.47-13.231,6.895-25.084,7.733" transform="translate(-232.602 -64.036)" fill="none" stroke="#141b25" stroke-linecap="round" stroke-linejoin="round" stroke-width="0.365"/>
            <path id="Trazado_1277041" data-name="Trazado 1277041" d="M596.665,155.027s1.08,5.469,5.927,6.41" transform="translate(-246.543 -64.057)" fill="none" stroke="#141b25" stroke-linecap="round" stroke-linejoin="round" stroke-width="0.365"/>
            <path id="Trazado_1277042" data-name="Trazado 1277042" d="M560.691,170.247s4.691,2.692,2.83,14.148" transform="translate(-231.678 -70.346)" fill="none" stroke="#141b25" stroke-linecap="round" stroke-linejoin="round" stroke-width="0.365"/>
            <path id="Trazado_1277043" data-name="Trazado 1277043" d="M565.1,101.285c-.189.18.412,20.219-1.972,22.184-3.744,0-7.008-1.2-8.386-3.8,2.607-7,7.5-17.839,9.333-18.207.319-.07.667-.13,1.026-.18" transform="translate(-229.22 -41.851)" fill="#69d7e5"/>
            <path id="Trazado_1277044" data-name="Trazado 1277044" d="M591.579,120.269v-.01s-5.11-6.794-5.628-10.41a17.979,17.979,0,0,1,.747-8.537.44.44,0,0,0-.279-.548c-1.524-.627-2.092-.753-2.427-.56a.467.467,0,0,0-.213.272c-.887,2.032-1.245,5.778-1.484,9.035-.259,3.457-5.26,3.058-7.093,3.058s-4.722-.309-4.513-3.138.607-8.875.607-8.875v-.01s-.014-.386-.279-.376a2.689,2.689,0,0,0-1.843.635,1.945,1.945,0,0,0-.478.648c-.708,1.454-.827,3.616-2.082,6.4a27.129,27.129,0,0,0-1.9,5.09A4.977,4.977,0,0,0,564.6,114c-.011,3.467,2.6,8.985,2.6,8.985a32.6,32.6,0,0,1-.209,4.5c-.229.738-1.205,1.524-1.3,2.57s1.434,2.331,1.434,2.331c1.006.209,2,.388,2.979.538s1.933.259,2.869.349a58.011,58.011,0,0,0,13.259-.289c.349-.05.677-.1,1-.149.408-.06.787-.13,1.135-.19,1.1-.2,1.9-.378,2.371-.5a.712.712,0,0,0,.458-.388.722.722,0,0,0,.06-.209,1.427,1.427,0,0,0,.01-.289,4.592,4.592,0,0,0-1.365-3.785,15.551,15.551,0,0,1,.867-4.323,16.9,16.9,0,0,0,.817-2.889" transform="translate(-233.295 -41.37)" fill="#fff"/>
            <path id="Trazado_1277045" data-name="Trazado 1277045" d="M600.9,146.743s-2.612,1.455-9.662,1.455" transform="translate(-244.302 -60.634)" fill="none" stroke="#141b25" stroke-linecap="round" stroke-linejoin="round" stroke-width="0.365"/>
            <path id="Trazado_1277046" data-name="Trazado 1277046" d="M568.686,146.766a11.588,11.588,0,0,0,4.22,1.245" transform="translate(-234.982 -60.644)" fill="none" stroke="#141b25" stroke-linecap="round" stroke-linejoin="round" stroke-width="0.365"/>
            <path id="Trazado_1277047" data-name="Trazado 1277047" d="M588.057,100.556c-.887,2.032-1.245,5.778-1.484,9.035-.259,3.457-5.26,3.058-7.093,3.058s-4.722-.309-4.513-3.138.607-8.875.607-8.875v-.01c2.969-.259,6.634-.309,10.131-.309a11.976,11.976,0,0,1,2.351.239" transform="translate(-237.573 -41.451)" fill="#69d7e5"/>
            <path id="Trazado_1277048" data-name="Trazado 1277048" d="M588.717,54.262a5.044,5.044,0,1,1-5.044-5.044,5.043,5.043,0,0,1,5.044,5.044" transform="translate(-239.09 -20.337)" fill="#2a4579"/>
            <path id="Trazado_1277049" data-name="Trazado 1277049" d="M585.617,59.441a3.725,3.725,0,1,1-3.725-3.725,3.725,3.725,0,0,1,3.725,3.725" transform="translate(-238.899 -23.022)" fill="#e8a010"/>
            <path id="Trazado_1277050" data-name="Trazado 1277050" d="M566.687,70.113s-2.228-1.211-2.076-5.2c.192-5.061,6.077-9.1,13.037-6.944,4.434,1.376,5.129,8.753,5.129,8.753a21.659,21.659,0,0,1,5.9,7.314c1.809,4.168-1.7,8.264-7.411,7.877-10.8-.733-14.578-11.8-14.578-11.8" transform="translate(-233.295 -23.706)" fill="#2a4579"/>
            <path id="Trazado_1277051" data-name="Trazado 1277051" d="M586.525,93.674l.322-11-10.424,6.968V93.12c0,3.267.513,5.921,2.755,6.293,3.124.518,5.971-2.078,7.348-5.738" transform="translate(-238.178 -34.162)" fill="#e29680"/>
            <path id="Trazado_1277052" data-name="Trazado 1277052" d="M575.589,61.619c-4.806-.3-8.036,2.092-7.661,6.407a30.248,30.248,0,0,1,.119,3.447c-.071,2.781-.545,3.841.1,5.65.94,2.646,3.37,4,7.043,4,4.805,0,8.458-2.856,8.27-10.169-.174-6.79-3.977-9.092-7.87-9.332" transform="translate(-234.621 -25.451)" fill="#e29680"/>
            <path id="Trazado_1277053" data-name="Trazado 1277053" d="M576.416,93.842v2.27c5.219.36,6.871-3.072,6.959-3.283a8.616,8.616,0,0,1-4.635,1.2,11.45,11.45,0,0,1-2.283-.211Z" transform="translate(-238.176 -38.357)" fill="#141b25"/>
            <path id="Trazado_1277054" data-name="Trazado 1277054" d="M583.427,70.258c-5.449,0-6.545-4.244-6.545-4.244-2.351,3.5-8.876,3.138-8.876,3.138-.02-.378-.139-.688-.168-1.116-.379-4.314,2.979-6.912,7.78-6.613,3.776.229,7.669,2.693,7.809,8.835" transform="translate(-234.619 -25.371)" fill="#2a4579"/>
            <path id="Trazado_1277055" data-name="Trazado 1277055" d="M590.412,76.981a1.94,1.94,0,1,0,1.894-2.364,2.168,2.168,0,0,0-1.894,2.364" transform="translate(-243.959 -30.832)" fill="#e29680"/>
            <path id="Trazado_1277056" data-name="Trazado 1277056" d="M593.908,76.932a1.619,1.619,0,0,1-1.178,2.011" transform="translate(-244.917 -31.788)" fill="none" stroke="#141b25" stroke-linecap="round" stroke-linejoin="round" stroke-width="0.365"/>
            <path id="Trazado_1277057" data-name="Trazado 1277057" d="M593,77.4a1.444,1.444,0,0,1,.729,1.218" transform="translate(-245.027 -31.983)" fill="none" stroke="#141b25" stroke-linecap="round" stroke-linejoin="round" stroke-width="0.365"/>
            <path id="Trazado_1277058" data-name="Trazado 1277058" d="M575.293,77.049l.4,1.114-.569,1.567a.315.315,0,0,0,.291.422l1.376.022" transform="translate(-237.635 -31.837)" fill="none" stroke="#421d19" stroke-linecap="round" stroke-linejoin="round" stroke-width="0.35"/>
            <path id="Trazado_1277059" data-name="Trazado 1277059" d="M583.4,75.511s-1.318-1.181-2.458-.534" transform="translate(-240.047 -30.9)" fill="none" stroke="#141b25" stroke-linecap="round" stroke-linejoin="round" stroke-width="0.875"/>
            <path id="Trazado_1277060" data-name="Trazado 1277060" d="M572.562,74.9s-.781-.462-1.94.693" transform="translate(-235.782 -30.912)" fill="none" stroke="#141b25" stroke-linecap="round" stroke-linejoin="round" stroke-width="0.875"/>
            <path id="Trazado_1277061" data-name="Trazado 1277061" d="M581.131,78.283a.78.78,0,1,0,.793-.768.781.781,0,0,0-.793.768" transform="translate(-240.124 -32.03)" fill="#141b25"/>
            <path id="Trazado_1277062" data-name="Trazado 1277062" d="M583.96,78.231s-.425.373-.788.071" transform="translate(-240.967 -32.325)" fill="none" stroke="#141b25" stroke-linecap="round" stroke-linejoin="round" stroke-width="0.875"/>
            <path id="Trazado_1277063" data-name="Trazado 1277063" d="M572.828,78.123a.78.78,0,1,1-.793-.768.78.78,0,0,1,.793.768" transform="translate(-236.048 -31.964)" fill="#141b25"/>
            <path id="Trazado_1277064" data-name="Trazado 1277064" d="M570.543,78.072s.425.373.788.071" transform="translate(-235.749 -32.259)" fill="none" stroke="#141b25" stroke-linecap="round" stroke-linejoin="round" stroke-width="0.875"/>
            <path id="Trazado_1277065" data-name="Trazado 1277065" d="M580.931,84.671s-.756,2.259-3.614,1.365" transform="translate(-238.548 -34.986)" fill="none" stroke="#662838" stroke-linecap="round" stroke-linejoin="round" stroke-width="0.623"/>
            <path id="Trazado_1277066" data-name="Trazado 1277066" d="M582.469,84.034a1.3,1.3,0,0,1,.934,1.233" transform="translate(-240.677 -34.723)" fill="none" stroke="#662838" stroke-linecap="round" stroke-linejoin="round" stroke-width="0.623"/>
            <path id="Trazado_1277067" data-name="Trazado 1277067" d="M586.578,147.589c-2.6,2.182-18.714,1.261-25.962.77a4.657,4.657,0,0,1-2.6.753c-1.584,0-1.62-.894-3.821.741-1.294.959-1.764-.212-1.764-.212s-.888,1.073-1.6.863a.792.792,0,0,1-.5-.991s-.7-.409-.152-1.375a12.676,12.676,0,0,1,3.982-3.544,10.235,10.235,0,0,0-3.86,1.457c-1.089.658-1.471-.566-.861-1.015a11.389,11.389,0,0,1,4.963-2.291,23.231,23.231,0,0,1,5.161.053s13.945-1.948,18.717-1.621l1.548-3.166s5.511-1.5,10.383,1.083c0,0-1.349,6.576-3.636,8.5" transform="translate(-226.91 -56.847)" fill="#e29680"/>
            <path id="Trazado_1277068" data-name="Trazado 1277068" d="M551.163,155.208a13.27,13.27,0,0,1,5.59-3.841" transform="translate(-227.741 -62.545)" fill="none" stroke="#141b25" stroke-linecap="round" stroke-linejoin="round" stroke-width="0.288"/>
            <path id="Trazado_1277069" data-name="Trazado 1277069" d="M554.742,156.356a12.774,12.774,0,0,1,3.952-2.525" transform="translate(-229.22 -63.563)" fill="none" stroke="#141b25" stroke-linecap="round" stroke-linejoin="round" stroke-width="0.288"/>
            <path id="Trazado_1277070" data-name="Trazado 1277070" d="M552.435,153.188s-.888,1.073-1.6.864a.793.793,0,0,1-.5-.992s-.7-.409-.152-1.375a12.668,12.668,0,0,1,3.982-3.544,10.227,10.227,0,0,0-3.86,1.456c-1.089.658-1.471-.566-.861-1.015a11.4,11.4,0,0,1,4.963-2.291,23.253,23.253,0,0,1,5.161.053s.451-.063,1.218-.164" transform="translate(-226.91 -60.395)" fill="none" stroke="#141b25" stroke-linecap="round" stroke-linejoin="round" stroke-width="0.288"/>
            <path id="Trazado_1277071" data-name="Trazado 1277071" d="M531.945,142.96H504.732a.958.958,0,0,1-.94-.773l-3.8-19.362a.958.958,0,0,1,.94-1.142h27.213a.958.958,0,0,1,.94.773l3.8,19.362a.958.958,0,0,1-.94,1.143" transform="translate(-206.59 -50.279)" fill="#b1358a"/>
            <path id="Trazado_1277072" data-name="Trazado 1277072" d="M561.741,160.055h-8.074v-2.112h8.074a1.056,1.056,0,0,1,0,2.112" transform="translate(-228.776 -65.262)" fill="#b1358a"/>
            <path id="Trazado_1277073" data-name="Trazado 1277073" d="M530.633,143.247H503.855a1.17,1.17,0,0,1-1.148-.941L499,123.777a1.17,1.17,0,0,1,1.147-1.4h26.779a1.17,1.17,0,0,1,1.147.941l3.707,18.529a1.171,1.171,0,0,1-1.148,1.4" transform="translate(-206.178 -50.566)" fill="#cf4694"/>
            <path id="Trazado_1277074" data-name="Trazado 1277074" d="M533.3,160.048H505.765a1.061,1.061,0,0,1,0-2.121H533.3a1.061,1.061,0,0,1,0,2.121" transform="translate(-208.545 -65.256)" fill="#a0267f"/>
            <g id="Grupo_1212188" data-name="Grupo 1212188" transform="translate(297.799 71.811)" opacity="0.1">
              <g id="Grupo_1212187" data-name="Grupo 1212187">
                <g id="Grupo_1212186" data-name="Grupo 1212186" clip-path="url(#clip-path-4)">
                  <path id="Trazado_1277075" data-name="Trazado 1277075" d="M517.17,122.377,507.5,143.238H514.6l8.892-20.861Z" transform="translate(-507.498 -122.377)" fill="#fff"/>
                </g>
              </g>
            </g>
            <g id="Grupo_1212191" data-name="Grupo 1212191" transform="translate(319.096 82.246)" opacity="0.1">
              <g id="Grupo_1212190" data-name="Grupo 1212190">
                <g id="Grupo_1212189" data-name="Grupo 1212189" clip-path="url(#clip-path-5)">
                  <path id="Trazado_1277076" data-name="Trazado 1277076" d="M548.5,140.16l-4.712,10.426h3.31l2.3-5.917Z" transform="translate(-543.791 -140.16)" fill="#fff"/>
                </g>
              </g>
            </g>
            <path id="Trazado_1277077" data-name="Trazado 1277077" d="M611.388,124.836c-.09,1.833-11.007.534-11.913-.97,0,0,1.757-7.3,1.5-8.546-1.219-5.82-1.259-9.477.135-13.171a21.362,21.362,0,0,1,8.148,5.1c.907,1,3.906,7.523,2.133,17.589" transform="translate(-247.704 -42.208)" fill="#69d7e5"/>
            <g id="Grupo_1212194" data-name="Grupo 1212194" transform="translate(62.515 42.329)" opacity="0.5">
              <g id="Grupo_1212193" data-name="Grupo 1212193">
                <g id="Grupo_1212192" data-name="Grupo 1212192" clip-path="url(#clip-path-6)">
                  <path id="Trazado_1277078" data-name="Trazado 1277078" d="M106.535,122.8h68.6a4.237,4.237,0,0,0,4.237-4.237V72.136H106.535Z" transform="translate(-106.535 -72.136)" fill="#2a4579"/>
                </g>
              </g>
            </g>
            <path id="Trazado_1277079" data-name="Trazado 1277079" d="M93.025,42.894h74.891a2.851,2.851,0,0,1,2.851,2.851v3.293H93.025Z" transform="translate(-38.438 -17.724)" fill="#ffb851"/>
            <path id="Trazado_1277080" data-name="Trazado 1277080" d="M154.41,47.688v4.031H53.438V43.286A3.661,3.661,0,0,1,57.1,39.625H74.377a3.661,3.661,0,0,1,3.662,3.661v.741A3.661,3.661,0,0,0,81.7,47.688Z" transform="translate(-22.081 -16.373)" fill="#fff"/>
            <path id="Trazado_1277081" data-name="Trazado 1277081" d="M151.88,115.076H55.969a2.53,2.53,0,0,1-2.53-2.531V60.235H154.411v52.31a2.531,2.531,0,0,1-2.531,2.531" transform="translate(-22.081 -24.889)" fill="#ffd453"/>
            <path id="Trazado_1277082" data-name="Trazado 1277082" d="M63.227,46.917a1.735,1.735,0,1,1-1.735-1.735,1.735,1.735,0,0,1,1.735,1.735" transform="translate(-24.692 -18.669)" fill="#f0c52f"/>
            <path id="Trazado_1277083" data-name="Trazado 1277083" d="M73.122,46.917a1.735,1.735,0,1,1-1.735-1.735,1.734,1.734,0,0,1,1.735,1.735" transform="translate(-28.781 -18.669)" fill="#519074"/>
            <path id="Trazado_1277084" data-name="Trazado 1277084" d="M83.017,46.917a1.735,1.735,0,1,1-1.735-1.735,1.734,1.734,0,0,1,1.735,1.735" transform="translate(-32.869 -18.669)" fill="#3e6faf"/>
            <path id="Trazado_1277085" data-name="Trazado 1277085" d="M137.443,96.251h26.745a.867.867,0,0,1,.721,1.35l-4.792,7.162a.868.868,0,0,1-1.411.043l-2.154-2.832a.867.867,0,0,0-1.409.039l-1.877,2.776a.868.868,0,0,1-1.4.052l-2.228-2.825a.867.867,0,0,0-1.432.1l-1.86,3.22a.868.868,0,0,1-.751.434h-8.154a.867.867,0,0,1-.867-.867V97.118a.867.867,0,0,1,.867-.867" transform="translate(-56.433 -39.771)" fill="#fff"/>
            <path id="Trazado_1277086" data-name="Trazado 1277086" d="M118.632,93.164A14.283,14.283,0,1,1,104.35,78.882a14.283,14.283,0,0,1,14.283,14.282" transform="translate(-37.216 -32.594)" fill="#fff"/>
            <path id="Trazado_1277087" data-name="Trazado 1277087" d="M117.5,95.864A10.448,10.448,0,1,1,107.05,85.417,10.448,10.448,0,0,1,117.5,95.864" transform="translate(-39.916 -35.294)" fill="#ffe79e"/>
            <path id="Trazado_1277088" data-name="Trazado 1277088" d="M109.009,96.251a2.434,2.434,0,1,1-2.434-2.434,2.434,2.434,0,0,1,2.434,2.434" transform="translate(-43.031 -38.765)" fill="#fff"/>
            <path id="Trazado_1277089" data-name="Trazado 1277089" d="M206.857,297.191a13.394,13.394,0,1,1,16.417-9.446,13.394,13.394,0,0,1-16.417,9.446" transform="translate(-81.378 -111.92)" fill="#fff"/>
            <path id="Trazado_1277090" data-name="Trazado 1277090" d="M201.564,305.871l-4.315-6.269-3.3,6.152Z" transform="translate(-80.14 -123.796)" fill="#fff"/>
            <path id="Trazado_1277091" data-name="Trazado 1277091" d="M211.746,288.052a2.432,2.432,0,0,0-2.425,2.425v5.254a2.433,2.433,0,0,0,2.425,2.425h7.275a2.432,2.432,0,0,0,2.425-2.425v-5.254a2.432,2.432,0,0,0-2.425-2.425Zm2.129,7.9.763-3.173a1.286,1.286,0,1,1,1.491,0l.763,3.173h-3.017Z" transform="translate(-86.492 -119.023)" fill="#e48b0e"/>
            <path id="Trazado_1277092" data-name="Trazado 1277092" d="M217.519,281.477h0a3.032,3.032,0,0,1,3.031,3.031v1.4h-6.063v-1.4A3.031,3.031,0,0,1,217.519,281.477Z" transform="translate(-88.627 -116.307)" fill="none" stroke="#e48b0e" stroke-miterlimit="10" stroke-width="2.066"/>
            <path id="Trazado_1277093" data-name="Trazado 1277093" d="M460.6,112.758a13.394,13.394,0,1,0-16.418-9.446,13.394,13.394,0,0,0,16.418,9.446" transform="translate(-183.343 -35.712)" fill="#e48b0e"/>
            <path id="Trazado_1277094" data-name="Trazado 1277094" d="M479.4,121.438l4.315-6.269,3.3,6.152Z" transform="translate(-198.088 -47.588)" fill="#e48b0e"/>
            <rect id="Rectángulo_461851" data-name="Rectángulo 461851" width="14.661" height="10.3" transform="translate(266.114 58.661)" fill="#fff"/>
            <path id="Trazado_1277095" data-name="Trazado 1277095" d="M453.5,99.967l7.33,6.824,7.33-6.824" transform="translate(-187.387 -41.307)" fill="none" stroke="#e48b0e" stroke-miterlimit="10" stroke-width="0.682"/>
            <line id="Línea_3415" data-name="Línea 3415" x2="5.671" y2="5.02" transform="translate(275.103 63.941)" fill="none" stroke="#e48b0e" stroke-miterlimit="10" stroke-width="0.682"/>
            <line id="Línea_3416" data-name="Línea 3416" y1="5.02" x2="5.671" transform="translate(266.114 63.941)" fill="none" stroke="#e48b0e" stroke-miterlimit="10" stroke-width="0.682"/>
            <path id="Trazado_1277096" data-name="Trazado 1277096" d="M478.64,98.787a3.128,3.128,0,1,1-3.128-3.128,3.128,3.128,0,0,1,3.128,3.128" transform="translate(-195.19 -39.526)" fill="#519074"/>
            <path id="Trazado_1277097" data-name="Trazado 1277097" d="M474.78,100.411l1.2,1.074,2.243-2.433" transform="translate(-196.18 -40.928)" fill="none" stroke="#fff" stroke-miterlimit="10" stroke-width="0.682"/>
            <path id="Trazado_1277098" data-name="Trazado 1277098" d="M19.436,233.4A15.419,15.419,0,1,0,.535,222.53a15.419,15.419,0,0,0,18.9,10.875" transform="translate(0 -83.919)" fill="#e48b0e"/>
            <path id="Trazado_1277099" data-name="Trazado 1277099" d="M41.078,243.4l4.967-7.217,3.8,7.082Z" transform="translate(-16.974 -97.59)" fill="#e48b0e"/>
            <ellipse id="Elipse_13738" data-name="Elipse 13738" cx="9.829" cy="9.605" rx="9.829" ry="9.605" transform="translate(5.594 124.993)" fill="none" stroke="#fff" stroke-linecap="round" stroke-linejoin="round" stroke-width="0.848"/>
            <ellipse id="Elipse_13739" data-name="Elipse 13739" cx="2.805" cy="9.674" rx="2.805" ry="9.674" transform="translate(12.618 124.924)" fill="none" stroke="#fff" stroke-linecap="round" stroke-linejoin="round" stroke-width="0.848"/>
            <path id="Trazado_1277100" data-name="Trazado 1277100" d="M28.474,222.565c0-5.343-3.317-9.674-7.407-9.674s-7.407,4.331-7.407,9.674,3.316,9.674,7.407,9.674S28.474,227.908,28.474,222.565Z" transform="translate(-5.644 -87.967)" fill="none" stroke="#fff" stroke-linecap="round" stroke-linejoin="round" stroke-width="0.848"/>
            <line id="Línea_3417" data-name="Línea 3417" x2="9.836" transform="translate(10.505 142.916)" fill="none" stroke="#fff" stroke-linecap="round" stroke-linejoin="round" stroke-width="0.848"/>
            <line id="Línea_3418" data-name="Línea 3418" x2="16.932" transform="translate(6.957 139.478)" fill="none" stroke="#fff" stroke-linecap="round" stroke-linejoin="round" stroke-width="0.848"/>
            <line id="Línea_3419" data-name="Línea 3419" x2="19.658" transform="translate(5.594 134.598)" fill="none" stroke="#fff" stroke-linecap="round" stroke-linejoin="round" stroke-width="0.848"/>
            <line id="Línea_3420" data-name="Línea 3420" x2="16.931" transform="translate(6.957 129.718)" fill="none" stroke="#fff" stroke-linecap="round" stroke-linejoin="round" stroke-width="0.848"/>
            <line id="Línea_3421" data-name="Línea 3421" x2="9.831" transform="translate(10.506 126.281)" fill="none" stroke="#fff" stroke-linecap="round" stroke-linejoin="round" stroke-width="0.848"/>
            <path id="Trazado_1277101" data-name="Trazado 1277101" d="M170.559,200.822l-15.182-6.427-15.183,6.427s-4,24.68,15.183,29.024c19.187-4.345,15.182-29.024,15.182-29.024" transform="translate(-57.785 -80.324)" fill="#fff"/>
            <path id="Trazado_1277102" data-name="Trazado 1277102" d="M170.119,203.285l-13.61-5.762-13.61,5.762s-3.589,22.123,13.61,26.017c17.2-3.894,13.61-26.017,13.61-26.017" transform="translate(-58.917 -81.617)" fill="#2a4579"/>
            <path id="Trazado_1277103" data-name="Trazado 1277103" d="M169.385,215.253l-1.41,1.541a12.633,12.633,0,0,0-17.965-.056L148.6,215.2a14.718,14.718,0,0,1,20.784.055" transform="translate(-61.402 -87.156)" fill="#fff"/>
            <path id="Trazado_1277104" data-name="Trazado 1277104" d="M168.554,221.24l-1.411,1.543a8.481,8.481,0,0,0-12.35-.057l-1.411-1.542a10.566,10.566,0,0,1,15.172.056" transform="translate(-63.378 -90.078)" fill="#fff"/>
            <path id="Trazado_1277105" data-name="Trazado 1277105" d="M167.739,227.1l-1.42,1.551a4.421,4.421,0,0,0-6.84-.061l-1.417-1.549a6.507,6.507,0,0,1,9.676.059" transform="translate(-65.312 -92.936)" fill="#fff"/>
            <path id="Trazado_1277106" data-name="Trazado 1277106" d="M165.124,232.758h0a1.619,1.619,0,1,0,1.4.809,1.619,1.619,0,0,0-1.4-.809" transform="translate(-67.561 -96.176)" fill="#fff"/>
          </g>
        </g>
      </g>
    </g>
  </g>
</svg>
